<svg version="1.1" xmlns="http://www.w3.org/2000/svg" xmlns:xlink="http://www.w3.org/1999/xlink" width="304.28857421875" height="68"><defs/><g><text fill="#eeeeee" stroke="none" font-family="Arial" font-size="24px" font-style="normal" font-weight="normal" text-decoration="none" x="0" y="0">UNREGISTERED</text><text fill="#eeeeee" stroke="none" font-family="Arial" font-size="24px" font-style="normal" font-weight="normal" text-decoration="none" x="0" y="30">UNREGISTERED</text><text fill="#eeeeee" stroke="none" font-family="Arial" font-size="24px" font-style="normal" font-weight="normal" text-decoration="none" x="0" y="60">UNREGISTERED</text><text fill="#eeeeee" stroke="none" font-family="Arial" font-size="24px" font-style="normal" font-weight="normal" text-decoration="none" x="200" y="0">UNREGISTERED</text><text fill="#eeeeee" stroke="none" font-family="Arial" font-size="24px" font-style="normal" font-weight="normal" text-decoration="none" x="200" y="30">UNREGISTERED</text><text fill="#eeeeee" stroke="none" font-family="Arial" font-size="24px" font-style="normal" font-weight="normal" text-decoration="none" x="200" y="60">UNREGISTERED</text><g transform="translate(-10,-10) scale(1,1)"><path fill="#C0C0C0" stroke="none" d="M 70.21630859375 38.5 C 70.21630859375 32.1487248 75.36503339375 27 81.71630859375 27 C 88.06758379375 27 93.21630859375 32.1487248 93.21630859375 38.5 C 93.21630859375 44.8512752 88.06758379375 50 81.71630859375 50 C 75.36503339375 50 70.21630859375 44.8512752 70.21630859375 38.5 Z" opacity="0.2"/></g><g transform="translate(-10,-10) scale(1,1)"><path fill="#ffffff" stroke="none" d="M 63.21630859375 31.5 C 63.21630859375 25.1487248 68.36503339375 20 74.71630859375 20 C 81.06758379375 20 86.21630859375 25.1487248 86.21630859375 31.5 C 86.21630859375 37.8512752 81.06758379375 43 74.71630859375 43 C 68.36503339375 43 63.21630859375 37.8512752 63.21630859375 31.5 Z"/></g><g transform="translate(-10,-10) scale(1,1)"><path fill="none" stroke="#000000" d="M 63.21630859375 31.5 C 63.21630859375 25.1487248 68.36503339375 20 74.71630859375 20 C 81.06758379375 20 86.21630859375 25.1487248 86.21630859375 31.5 C 86.21630859375 37.8512752 81.06758379375 43 74.71630859375 43 C 68.36503339375 43 63.21630859375 37.8512752 63.21630859375 31.5 Z" stroke-miterlimit="10"/></g><g transform="translate(-10,-10) scale(1,1)"><g><path fill="none" stroke="none"/><text fill="#000000" stroke="none" font-family="Arial" font-size="13px" font-style="normal" font-weight="bold" text-decoration="none" x="24.5" y="61">IQueryInfraBase</text></g></g><g transform="translate(-10,-10) scale(1,1)"><path fill="#C0C0C0" stroke="none" d="M 227.860595703125 38.5 C 227.860595703125 32.1487248 233.009320503125 27 239.360595703125 27 C 245.711870903125 27 250.860595703125 32.1487248 250.860595703125 38.5 C 250.860595703125 44.8512752 245.711870903125 50 239.360595703125 50 C 233.009320503125 50 227.860595703125 44.8512752 227.860595703125 38.5 Z" opacity="0.2"/></g><g transform="translate(-10,-10) scale(1,1)"><path fill="#ffffff" stroke="none" d="M 220.860595703125 31.5 C 220.860595703125 25.1487248 226.009320503125 20 232.360595703125 20 C 238.711870903125 20 243.860595703125 25.1487248 243.860595703125 31.5 C 243.860595703125 37.8512752 238.711870903125 43 232.360595703125 43 C 226.009320503125 43 220.860595703125 37.8512752 220.860595703125 31.5 Z"/></g><g transform="translate(-10,-10) scale(1,1)"><path fill="none" stroke="#000000" d="M 220.860595703125 31.5 C 220.860595703125 25.1487248 226.009320503125 20 232.360595703125 20 C 238.711870903125 20 243.860595703125 25.1487248 243.860595703125 31.5 C 243.860595703125 37.8512752 238.711870903125 43 232.360595703125 43 C 226.009320503125 43 220.860595703125 37.8512752 220.860595703125 31.5 Z" stroke-miterlimit="10"/></g><g transform="translate(-10,-10) scale(1,1)"><g><path fill="none" stroke="none"/><text fill="#000000" stroke="none" font-family="Arial" font-size="13px" font-style="normal" font-weight="bold" text-decoration="none" x="164.9326171875" y="61">IRepositoryWriteBase</text></g></g></g></svg>