<svg version="1.1" xmlns="http://www.w3.org/2000/svg" xmlns:xlink="http://www.w3.org/1999/xlink" width="344.0185546875" height="68"><defs/><g><text fill="#eeeeee" stroke="none" font-family="Arial" font-size="24px" font-style="normal" font-weight="normal" text-decoration="none" x="0" y="0">UNREGISTERED</text><text fill="#eeeeee" stroke="none" font-family="Arial" font-size="24px" font-style="normal" font-weight="normal" text-decoration="none" x="0" y="30">UNREGISTERED</text><text fill="#eeeeee" stroke="none" font-family="Arial" font-size="24px" font-style="normal" font-weight="normal" text-decoration="none" x="0" y="60">UNREGISTERED</text><text fill="#eeeeee" stroke="none" font-family="Arial" font-size="24px" font-style="normal" font-weight="normal" text-decoration="none" x="200" y="0">UNREGISTERED</text><text fill="#eeeeee" stroke="none" font-family="Arial" font-size="24px" font-style="normal" font-weight="normal" text-decoration="none" x="200" y="30">UNREGISTERED</text><text fill="#eeeeee" stroke="none" font-family="Arial" font-size="24px" font-style="normal" font-weight="normal" text-decoration="none" x="200" y="60">UNREGISTERED</text><g transform="translate(-10,-10) scale(1,1)"><path fill="#C0C0C0" stroke="none" d="M 90.081298828125 38.5 C 90.081298828125 32.1487248 95.230023628125 27 101.581298828125 27 C 107.932574028125 27 113.081298828125 32.1487248 113.081298828125 38.5 C 113.081298828125 44.8512752 107.932574028125 50 101.581298828125 50 C 95.230023628125 50 90.081298828125 44.8512752 90.081298828125 38.5 Z" opacity="0.2"/></g><g transform="translate(-10,-10) scale(1,1)"><path fill="#ffffff" stroke="none" d="M 83.081298828125 31.5 C 83.081298828125 25.1487248 88.230023628125 20 94.581298828125 20 C 100.932574028125 20 106.081298828125 25.1487248 106.081298828125 31.5 C 106.081298828125 37.8512752 100.932574028125 43 94.581298828125 43 C 88.230023628125 43 83.081298828125 37.8512752 83.081298828125 31.5 Z"/></g><g transform="translate(-10,-10) scale(1,1)"><path fill="none" stroke="#000000" d="M 83.081298828125 31.5 C 83.081298828125 25.1487248 88.230023628125 20 94.581298828125 20 C 100.932574028125 20 106.081298828125 25.1487248 106.081298828125 31.5 C 106.081298828125 37.8512752 100.932574028125 43 94.581298828125 43 C 88.230023628125 43 83.081298828125 37.8512752 83.081298828125 31.5 Z" stroke-miterlimit="10"/></g><g transform="translate(-10,-10) scale(1,1)"><g><path fill="none" stroke="none"/><text fill="#000000" stroke="none" font-family="Arial" font-size="13px" font-style="normal" font-weight="bold" text-decoration="none" x="24.5" y="61">IRepositoryQueryBase</text></g></g><g transform="translate(-10,-10) scale(1,1)"><path fill="#C0C0C0" stroke="none" d="M 267.590576171875 38.5 C 267.590576171875 32.1487248 272.739300971875 27 279.090576171875 27 C 285.441851371875 27 290.590576171875 32.1487248 290.590576171875 38.5 C 290.590576171875 44.8512752 285.441851371875 50 279.090576171875 50 C 272.739300971875 50 267.590576171875 44.8512752 267.590576171875 38.5 Z" opacity="0.2"/></g><g transform="translate(-10,-10) scale(1,1)"><path fill="#ffffff" stroke="none" d="M 260.590576171875 31.5 C 260.590576171875 25.1487248 265.739300971875 20 272.090576171875 20 C 278.441851371875 20 283.590576171875 25.1487248 283.590576171875 31.5 C 283.590576171875 37.8512752 278.441851371875 43 272.090576171875 43 C 265.739300971875 43 260.590576171875 37.8512752 260.590576171875 31.5 Z"/></g><g transform="translate(-10,-10) scale(1,1)"><path fill="none" stroke="#000000" d="M 260.590576171875 31.5 C 260.590576171875 25.1487248 265.739300971875 20 272.090576171875 20 C 278.441851371875 20 283.590576171875 25.1487248 283.590576171875 31.5 C 283.590576171875 37.8512752 278.441851371875 43 272.090576171875 43 C 265.739300971875 43 260.590576171875 37.8512752 260.590576171875 31.5 Z" stroke-miterlimit="10"/></g><g transform="translate(-10,-10) scale(1,1)"><g><path fill="none" stroke="none"/><text fill="#000000" stroke="none" font-family="Arial" font-size="13px" font-style="normal" font-weight="bold" text-decoration="none" x="204.66259765625" y="61">IRepositoryWriteBase</text></g></g></g></svg>