<svg version="1.1" xmlns="http://www.w3.org/2000/svg" xmlns:xlink="http://www.w3.org/1999/xlink" width="249.8798828125" height="178"><defs/><g><text fill="#eeeeee" stroke="none" font-family="Arial" font-size="24px" font-style="normal" font-weight="normal" text-decoration="none" x="0" y="0">UNREGISTERED</text><text fill="#eeeeee" stroke="none" font-family="Arial" font-size="24px" font-style="normal" font-weight="normal" text-decoration="none" x="0" y="30">UNREGISTERED</text><text fill="#eeeeee" stroke="none" font-family="Arial" font-size="24px" font-style="normal" font-weight="normal" text-decoration="none" x="0" y="60">UNREGISTERED</text><text fill="#eeeeee" stroke="none" font-family="Arial" font-size="24px" font-style="normal" font-weight="normal" text-decoration="none" x="0" y="90">UNREGISTERED</text><text fill="#eeeeee" stroke="none" font-family="Arial" font-size="24px" font-style="normal" font-weight="normal" text-decoration="none" x="0" y="120">UNREGISTERED</text><text fill="#eeeeee" stroke="none" font-family="Arial" font-size="24px" font-style="normal" font-weight="normal" text-decoration="none" x="0" y="150">UNREGISTERED</text><text fill="#eeeeee" stroke="none" font-family="Arial" font-size="24px" font-style="normal" font-weight="normal" text-decoration="none" x="200" y="0">UNREGISTERED</text><text fill="#eeeeee" stroke="none" font-family="Arial" font-size="24px" font-style="normal" font-weight="normal" text-decoration="none" x="200" y="30">UNREGISTERED</text><text fill="#eeeeee" stroke="none" font-family="Arial" font-size="24px" font-style="normal" font-weight="normal" text-decoration="none" x="200" y="60">UNREGISTERED</text><text fill="#eeeeee" stroke="none" font-family="Arial" font-size="24px" font-style="normal" font-weight="normal" text-decoration="none" x="200" y="90">UNREGISTERED</text><text fill="#eeeeee" stroke="none" font-family="Arial" font-size="24px" font-style="normal" font-weight="normal" text-decoration="none" x="200" y="120">UNREGISTERED</text><text fill="#eeeeee" stroke="none" font-family="Arial" font-size="24px" font-style="normal" font-weight="normal" text-decoration="none" x="200" y="150">UNREGISTERED</text><g transform="translate(-10,21) scale(1,1)"><path fill="#C0C0C0" stroke="none" d="M 47.450439453125 38.5 C 47.450439453125 32.1487248 52.599164253125 27 58.950439453125 27 C 65.301714653125 27 70.450439453125 32.1487248 70.450439453125 38.5 C 70.450439453125 44.8512752 65.301714653125 50 58.950439453125 50 C 52.599164253125 50 47.450439453125 44.8512752 47.450439453125 38.5 Z" opacity="0.2"/></g><g transform="translate(-10,21) scale(1,1)"><path fill="#ffffff" stroke="none" d="M 40.450439453125 31.5 C 40.450439453125 25.1487248 45.599164253125 20 51.950439453125 20 C 58.301714653125 20 63.450439453125 25.1487248 63.450439453125 31.5 C 63.450439453125 37.8512752 58.301714653125 43 51.950439453125 43 C 45.599164253125 43 40.450439453125 37.8512752 40.450439453125 31.5 Z"/></g><g transform="translate(-10,21) scale(1,1)"><path fill="none" stroke="#000000" d="M 40.450439453125 31.5 C 40.450439453125 25.1487248 45.599164253125 20 51.950439453125 20 C 58.301714653125 20 63.450439453125 25.1487248 63.450439453125 31.5 C 63.450439453125 37.8512752 58.301714653125 43 51.950439453125 43 C 45.599164253125 43 40.450439453125 37.8512752 40.450439453125 31.5 Z" stroke-miterlimit="10"/></g><g transform="translate(-10,21) scale(1,1)"><g><path fill="none" stroke="none"/><text fill="#000000" stroke="none" font-family="Arial" font-size="13px" font-style="normal" font-weight="bold" text-decoration="none" x="24.5" y="61">IRequest</text></g></g><g transform="translate(-10,21) scale(1,1)"><path fill="#C0C0C0" stroke="none" d="M 197.890380859375 117.5 C 197.890380859375 111.1487248 203.039105659375 106 209.390380859375 106 C 215.741656059375 106 220.890380859375 111.1487248 220.890380859375 117.5 C 220.890380859375 123.8512752 215.741656059375 129 209.390380859375 129 C 203.039105659375 129 197.890380859375 123.8512752 197.890380859375 117.5 Z" opacity="0.2"/></g><g transform="translate(-10,21) scale(1,1)"><path fill="#ffffff" stroke="none" d="M 190.890380859375 110.5 C 190.890380859375 104.1487248 196.039105659375 99 202.390380859375 99 C 208.741656059375 99 213.890380859375 104.1487248 213.890380859375 110.5 C 213.890380859375 116.8512752 208.741656059375 122 202.390380859375 122 C 196.039105659375 122 190.890380859375 116.8512752 190.890380859375 110.5 Z"/></g><g transform="translate(-10,21) scale(1,1)"><path fill="none" stroke="#000000" d="M 190.890380859375 110.5 C 190.890380859375 104.1487248 196.039105659375 99 202.390380859375 99 C 208.741656059375 99 213.890380859375 104.1487248 213.890380859375 110.5 C 213.890380859375 116.8512752 208.741656059375 122 202.390380859375 122 C 196.039105659375 122 190.890380859375 116.8512752 190.890380859375 110.5 Z" stroke-miterlimit="10"/></g><g transform="translate(-10,21) scale(1,1)"><g><path fill="none" stroke="none"/><text fill="#000000" stroke="none" font-family="Arial" font-size="13px" font-style="normal" font-weight="bold" text-decoration="none" x="174.93994140625" y="140">IRequest</text></g></g><g transform="translate(-10,21) scale(1,1)"><path fill="#C0C0C0" stroke="none" d="M 197.890380859375 38.5 C 197.890380859375 32.1487248 203.039105659375 27 209.390380859375 27 C 215.741656059375 27 220.890380859375 32.1487248 220.890380859375 38.5 C 220.890380859375 44.8512752 215.741656059375 50 209.390380859375 50 C 203.039105659375 50 197.890380859375 44.8512752 197.890380859375 38.5 Z" opacity="0.2"/></g><g transform="translate(-10,21) scale(1,1)"><path fill="#ffffff" stroke="none" d="M 190.890380859375 31.5 C 190.890380859375 25.1487248 196.039105659375 20 202.390380859375 20 C 208.741656059375 20 213.890380859375 25.1487248 213.890380859375 31.5 C 213.890380859375 37.8512752 208.741656059375 43 202.390380859375 43 C 196.039105659375 43 190.890380859375 37.8512752 190.890380859375 31.5 Z"/></g><g transform="translate(-10,21) scale(1,1)"><path fill="none" stroke="#000000" d="M 190.890380859375 31.5 C 190.890380859375 25.1487248 196.039105659375 20 202.390380859375 20 C 208.741656059375 20 213.890380859375 25.1487248 213.890380859375 31.5 C 213.890380859375 37.8512752 208.741656059375 43 202.390380859375 43 C 196.039105659375 43 190.890380859375 37.8512752 190.890380859375 31.5 Z" stroke-miterlimit="10"/></g><g transform="translate(-10,21) scale(1,1)"><g><path fill="none" stroke="none"/><text fill="#000000" stroke="none" font-family="Arial" font-size="13px" font-style="normal" font-weight="bold" text-decoration="none" x="159.40087890625" y="61">IBaseRequest</text></g></g><g transform="translate(-10,21) scale(1,1)"><path fill="none" stroke="#000000" d="M 41 20 L 41 -11 L 38 -11 L 38 20" stroke-miterlimit="10"/></g><g transform="translate(-10,21) scale(1,1)"><path fill="#FFFFFF" stroke="none" d="M 29.580964487968025 -0.3253497152483078 L 38 20 L 46.419035512031975 -0.3253497152483078"/></g><g transform="translate(-10,21) scale(1,1)"><path fill="none" stroke="#000000" d="M 29.580964487968025 -0.3253497152483078 L 38 20 L 46.419035512031975 -0.3253497152483078 L 29.580964487968025 -0.3253497152483078" stroke-miterlimit="10"/></g><g transform="translate(-10,21) scale(1,1)"><path fill="none" stroke="#000000" d="M 84 59 L 85 59 L 85 69 L 120 69 L 120 45 L 114 45 L 114 20 L 108 20 L 108 30 L 84 30" stroke-miterlimit="10"/></g><g transform="translate(-10,21) scale(1,1)"><path fill="#FFFFFF" stroke="none" d="M 104.32534971524831 21.580964487968025 L 84 30 L 104.32534971524831 38.419035512031975"/></g><g transform="translate(-10,21) scale(1,1)"><path fill="none" stroke="#000000" d="M 104.32534971524831 21.580964487968025 L 84 30 L 104.32534971524831 38.419035512031975 L 104.32534971524831 21.580964487968025" stroke-miterlimit="10"/></g><g transform="translate(-10,21) scale(1,1)"><path fill="none" stroke="#000000" d="M 203 98 Q 203 84 203 69" stroke-miterlimit="10"/></g><g transform="translate(-10,21) scale(1,1)"><path fill="#FFFFFF" stroke="none" d="M 211.41903551203197 89.32534971524831 L 203 69 L 194.58096448796803 89.32534971524831"/></g><g transform="translate(-10,21) scale(1,1)"><path fill="none" stroke="#000000" d="M 211.41903551203197 89.32534971524831 L 203 69 L 194.58096448796803 89.32534971524831 L 211.41903551203197 89.32534971524831" stroke-miterlimit="10"/></g></g></svg>