<svg version="1.1" xmlns="http://www.w3.org/2000/svg" xmlns:xlink="http://www.w3.org/1999/xlink" width="140.9599609375" height="68"><defs/><g><text fill="#eeeeee" stroke="none" font-family="Arial" font-size="24px" font-style="normal" font-weight="normal" text-decoration="none" x="0" y="0">UNREGISTERED</text><text fill="#eeeeee" stroke="none" font-family="Arial" font-size="24px" font-style="normal" font-weight="normal" text-decoration="none" x="0" y="30">UNREGISTERED</text><text fill="#eeeeee" stroke="none" font-family="Arial" font-size="24px" font-style="normal" font-weight="normal" text-decoration="none" x="0" y="60">UNREGISTERED</text><g transform="translate(-10,-10) scale(1,1)"><path fill="#C0C0C0" stroke="none" d="M 75.97998046875 38.5 C 75.97998046875 32.1487248 81.12870526875 27 87.47998046875 27 C 93.83125566875 27 98.97998046875 32.1487248 98.97998046875 38.5 C 98.97998046875 44.8512752 93.83125566875 50 87.47998046875 50 C 81.12870526875 50 75.97998046875 44.8512752 75.97998046875 38.5 Z" opacity="0.2"/></g><g transform="translate(-10,-10) scale(1,1)"><path fill="#ffffff" stroke="none" d="M 68.97998046875 31.5 C 68.97998046875 25.1487248 74.12870526875 20 80.47998046875 20 C 86.83125566875 20 91.97998046875 25.1487248 91.97998046875 31.5 C 91.97998046875 37.8512752 86.83125566875 43 80.47998046875 43 C 74.12870526875 43 68.97998046875 37.8512752 68.97998046875 31.5 Z"/></g><g transform="translate(-10,-10) scale(1,1)"><path fill="none" stroke="#000000" d="M 68.97998046875 31.5 C 68.97998046875 25.1487248 74.12870526875 20 80.47998046875 20 C 86.83125566875 20 91.97998046875 25.1487248 91.97998046875 31.5 C 91.97998046875 37.8512752 86.83125566875 43 80.47998046875 43 C 74.12870526875 43 68.97998046875 37.8512752 68.97998046875 31.5 Z" stroke-miterlimit="10"/></g><g transform="translate(-10,-10) scale(1,1)"><g><path fill="none" stroke="none"/><text fill="#000000" stroke="none" font-family="Arial" font-size="13px" font-style="normal" font-weight="bold" text-decoration="none" x="24.5" y="61">IQueryApplication</text></g></g></g></svg>