<svg version="1.1" xmlns="http://www.w3.org/2000/svg" xmlns:xlink="http://www.w3.org/1999/xlink" width="101.2236328125" height="68"><defs/><g><text fill="#eeeeee" stroke="none" font-family="Arial" font-size="24px" font-style="normal" font-weight="normal" text-decoration="none" x="0" y="0">UNREGISTERED</text><text fill="#eeeeee" stroke="none" font-family="Arial" font-size="24px" font-style="normal" font-weight="normal" text-decoration="none" x="0" y="30">UNREGISTERED</text><text fill="#eeeeee" stroke="none" font-family="Arial" font-size="24px" font-style="normal" font-weight="normal" text-decoration="none" x="0" y="60">UNREGISTERED</text><g transform="translate(-10,-10) scale(1,1)"><path fill="#C0C0C0" stroke="none" d="M 56.11181640625 38.5 C 56.11181640625 32.1487248 61.26054120625 27 67.61181640625 27 C 73.96309160625 27 79.11181640625 32.1487248 79.11181640625 38.5 C 79.11181640625 44.8512752 73.96309160625 50 67.61181640625 50 C 61.26054120625 50 56.11181640625 44.8512752 56.11181640625 38.5 Z" opacity="0.2"/></g><g transform="translate(-10,-10) scale(1,1)"><path fill="#ffffff" stroke="none" d="M 49.11181640625 31.5 C 49.11181640625 25.1487248 54.26054120625 20 60.61181640625 20 C 66.96309160625 20 72.11181640625 25.1487248 72.11181640625 31.5 C 72.11181640625 37.8512752 66.96309160625 43 60.61181640625 43 C 54.26054120625 43 49.11181640625 37.8512752 49.11181640625 31.5 Z"/></g><g transform="translate(-10,-10) scale(1,1)"><path fill="none" stroke="#000000" d="M 49.11181640625 31.5 C 49.11181640625 25.1487248 54.26054120625 20 60.61181640625 20 C 66.96309160625 20 72.11181640625 25.1487248 72.11181640625 31.5 C 72.11181640625 37.8512752 66.96309160625 43 60.61181640625 43 C 54.26054120625 43 49.11181640625 37.8512752 49.11181640625 31.5 Z" stroke-miterlimit="10"/></g><g transform="translate(-10,-10) scale(1,1)"><g><path fill="none" stroke="none"/><text fill="#000000" stroke="none" font-family="Arial" font-size="13px" font-style="normal" font-weight="bold" text-decoration="none" x="24.5" y="61">IHandleApp</text></g></g></g></svg>