<svg version="1.1" xmlns="http://www.w3.org/2000/svg" xmlns:xlink="http://www.w3.org/1999/xlink" width="178.5380859375" height="68"><defs/><g><text fill="#eeeeee" stroke="none" font-family="Arial" font-size="24px" font-style="normal" font-weight="normal" text-decoration="none" x="0" y="0">UNREGISTERED</text><text fill="#eeeeee" stroke="none" font-family="Arial" font-size="24px" font-style="normal" font-weight="normal" text-decoration="none" x="0" y="30">UNREGISTERED</text><text fill="#eeeeee" stroke="none" font-family="Arial" font-size="24px" font-style="normal" font-weight="normal" text-decoration="none" x="0" y="60">UNREGISTERED</text><g transform="translate(-10,-10) scale(1,1)"><path fill="#C0C0C0" stroke="none" d="M 94.76904296875 38.5 C 94.76904296875 32.1487248 99.91776776875 27 106.26904296875 27 C 112.62031816875 27 117.76904296875 32.1487248 117.76904296875 38.5 C 117.76904296875 44.8512752 112.62031816875 50 106.26904296875 50 C 99.91776776875 50 94.76904296875 44.8512752 94.76904296875 38.5 Z" opacity="0.2"/></g><g transform="translate(-10,-10) scale(1,1)"><path fill="#ffffff" stroke="none" d="M 87.76904296875 31.5 C 87.76904296875 25.1487248 92.91776776875 20 99.26904296875 20 C 105.62031816875 20 110.76904296875 25.1487248 110.76904296875 31.5 C 110.76904296875 37.8512752 105.62031816875 43 99.26904296875 43 C 92.91776776875 43 87.76904296875 37.8512752 87.76904296875 31.5 Z"/></g><g transform="translate(-10,-10) scale(1,1)"><path fill="none" stroke="#000000" d="M 87.76904296875 31.5 C 87.76904296875 25.1487248 92.91776776875 20 99.26904296875 20 C 105.62031816875 20 110.76904296875 25.1487248 110.76904296875 31.5 C 110.76904296875 37.8512752 105.62031816875 43 99.26904296875 43 C 92.91776776875 43 87.76904296875 37.8512752 87.76904296875 31.5 Z" stroke-miterlimit="10"/></g><g transform="translate(-10,-10) scale(1,1)"><g><path fill="none" stroke="none"/><text fill="#000000" stroke="none" font-family="Arial" font-size="13px" font-style="normal" font-weight="bold" text-decoration="none" x="24.5" y="61">IRequestCommandBase</text></g></g></g></svg>