<svg version="1.1" xmlns="http://www.w3.org/2000/svg" xmlns:xlink="http://www.w3.org/1999/xlink" width="138.07177734375" height="68"><defs/><g><text fill="#eeeeee" stroke="none" font-family="Arial" font-size="24px" font-style="normal" font-weight="normal" text-decoration="none" x="0" y="0">UNREGISTERED</text><text fill="#eeeeee" stroke="none" font-family="Arial" font-size="24px" font-style="normal" font-weight="normal" text-decoration="none" x="0" y="30">UNREGISTERED</text><text fill="#eeeeee" stroke="none" font-family="Arial" font-size="24px" font-style="normal" font-weight="normal" text-decoration="none" x="0" y="60">UNREGISTERED</text><g transform="translate(-10,-10) scale(1,1)"><path fill="#C0C0C0" stroke="none" d="M 74.535888671875 38.5 C 74.535888671875 32.1487248 79.684613471875 27 86.035888671875 27 C 92.387163871875 27 97.535888671875 32.1487248 97.535888671875 38.5 C 97.535888671875 44.8512752 92.387163871875 50 86.035888671875 50 C 79.684613471875 50 74.535888671875 44.8512752 74.535888671875 38.5 Z" opacity="0.2"/></g><g transform="translate(-10,-10) scale(1,1)"><path fill="#ffffff" stroke="none" d="M 67.535888671875 31.5 C 67.535888671875 25.1487248 72.684613471875 20 79.035888671875 20 C 85.387163871875 20 90.535888671875 25.1487248 90.535888671875 31.5 C 90.535888671875 37.8512752 85.387163871875 43 79.035888671875 43 C 72.684613471875 43 67.535888671875 37.8512752 67.535888671875 31.5 Z"/></g><g transform="translate(-10,-10) scale(1,1)"><path fill="none" stroke="#000000" d="M 67.535888671875 31.5 C 67.535888671875 25.1487248 72.684613471875 20 79.035888671875 20 C 85.387163871875 20 90.535888671875 25.1487248 90.535888671875 31.5 C 90.535888671875 37.8512752 85.387163871875 43 79.035888671875 43 C 72.684613471875 43 67.535888671875 37.8512752 67.535888671875 31.5 Z" stroke-miterlimit="10"/></g><g transform="translate(-10,-10) scale(1,1)"><g><path fill="none" stroke="none"/><text fill="#000000" stroke="none" font-family="Arial" font-size="13px" font-style="normal" font-weight="bold" text-decoration="none" x="24.5" y="61">IMediatorRequest</text></g></g></g></svg>