<svg version="1.1" xmlns="http://www.w3.org/2000/svg" xmlns:xlink="http://www.w3.org/1999/xlink" width="109.95166015625" height="68"><defs/><g><text fill="#eeeeee" stroke="none" font-family="Arial" font-size="24px" font-style="normal" font-weight="normal" text-decoration="none" x="0" y="0">UNREGISTERED</text><text fill="#eeeeee" stroke="none" font-family="Arial" font-size="24px" font-style="normal" font-weight="normal" text-decoration="none" x="0" y="30">UNREGISTERED</text><text fill="#eeeeee" stroke="none" font-family="Arial" font-size="24px" font-style="normal" font-weight="normal" text-decoration="none" x="0" y="60">UNREGISTERED</text><g transform="translate(-10,-10) scale(1,1)"><path fill="#C0C0C0" stroke="none" d="M 60.475830078125 38.5 C 60.475830078125 32.1487248 65.624554878125 27 71.975830078125 27 C 78.327105278125 27 83.475830078125 32.1487248 83.475830078125 38.5 C 83.475830078125 44.8512752 78.327105278125 50 71.975830078125 50 C 65.624554878125 50 60.475830078125 44.8512752 60.475830078125 38.5 Z" opacity="0.2"/></g><g transform="translate(-10,-10) scale(1,1)"><path fill="#ffffff" stroke="none" d="M 53.475830078125 31.5 C 53.475830078125 25.1487248 58.624554878125 20 64.975830078125 20 C 71.327105278125 20 76.475830078125 25.1487248 76.475830078125 31.5 C 76.475830078125 37.8512752 71.327105278125 43 64.975830078125 43 C 58.624554878125 43 53.475830078125 37.8512752 53.475830078125 31.5 Z"/></g><g transform="translate(-10,-10) scale(1,1)"><path fill="none" stroke="#000000" d="M 53.475830078125 31.5 C 53.475830078125 25.1487248 58.624554878125 20 64.975830078125 20 C 71.327105278125 20 76.475830078125 25.1487248 76.475830078125 31.5 C 76.475830078125 37.8512752 71.327105278125 43 64.975830078125 43 C 58.624554878125 43 53.475830078125 37.8512752 53.475830078125 31.5 Z" stroke-miterlimit="10"/></g><g transform="translate(-10,-10) scale(1,1)"><g><path fill="none" stroke="none"/><text fill="#000000" stroke="none" font-family="Arial" font-size="13px" font-style="normal" font-weight="bold" text-decoration="none" x="24.5" y="61">IServiceBase</text></g></g></g></svg>