<svg version="1.1" xmlns="http://www.w3.org/2000/svg" xmlns:xlink="http://www.w3.org/1999/xlink" width="189.3798828125" height="68"><defs/><g><text fill="#eeeeee" stroke="none" font-family="Arial" font-size="24px" font-style="normal" font-weight="normal" text-decoration="none" x="0" y="0">UNREGISTERED</text><text fill="#eeeeee" stroke="none" font-family="Arial" font-size="24px" font-style="normal" font-weight="normal" text-decoration="none" x="0" y="30">UNREGISTERED</text><text fill="#eeeeee" stroke="none" font-family="Arial" font-size="24px" font-style="normal" font-weight="normal" text-decoration="none" x="0" y="60">UNREGISTERED</text><g transform="translate(-10,-10) scale(1,1)"><path fill="#C0C0C0" stroke="none" d="M 100.18994140625 38.5 C 100.18994140625 32.1487248 105.33866620625 27 111.68994140625 27 C 118.04121660625 27 123.18994140625 32.1487248 123.18994140625 38.5 C 123.18994140625 44.8512752 118.04121660625 50 111.68994140625 50 C 105.33866620625 50 100.18994140625 44.8512752 100.18994140625 38.5 Z" opacity="0.2"/></g><g transform="translate(-10,-10) scale(1,1)"><path fill="#ffffff" stroke="none" d="M 93.18994140625 31.5 C 93.18994140625 25.1487248 98.33866620625 20 104.68994140625 20 C 111.04121660625 20 116.18994140625 25.1487248 116.18994140625 31.5 C 116.18994140625 37.8512752 111.04121660625 43 104.68994140625 43 C 98.33866620625 43 93.18994140625 37.8512752 93.18994140625 31.5 Z"/></g><g transform="translate(-10,-10) scale(1,1)"><path fill="none" stroke="#000000" d="M 93.18994140625 31.5 C 93.18994140625 25.1487248 98.33866620625 20 104.68994140625 20 C 111.04121660625 20 116.18994140625 25.1487248 116.18994140625 31.5 C 116.18994140625 37.8512752 111.04121660625 43 104.68994140625 43 C 98.33866620625 43 93.18994140625 37.8512752 93.18994140625 31.5 Z" stroke-miterlimit="10"/></g><g transform="translate(-10,-10) scale(1,1)"><g><path fill="none" stroke="none"/><text fill="#000000" stroke="none" font-family="Arial" font-size="13px" font-style="normal" font-weight="bold" text-decoration="none" x="24.5" y="61">IResponseCommandBase</text></g></g></g></svg>