<svg version="1.1" xmlns="http://www.w3.org/2000/svg" xmlns:xlink="http://www.w3.org/1999/xlink" width="378.91796875" height="68"><defs/><g><text fill="#eeeeee" stroke="none" font-family="Arial" font-size="24px" font-style="normal" font-weight="normal" text-decoration="none" x="0" y="0">UNREGISTERED</text><text fill="#eeeeee" stroke="none" font-family="Arial" font-size="24px" font-style="normal" font-weight="normal" text-decoration="none" x="0" y="30">UNREGISTERED</text><text fill="#eeeeee" stroke="none" font-family="Arial" font-size="24px" font-style="normal" font-weight="normal" text-decoration="none" x="0" y="60">UNREGISTERED</text><text fill="#eeeeee" stroke="none" font-family="Arial" font-size="24px" font-style="normal" font-weight="normal" text-decoration="none" x="200" y="0">UNREGISTERED</text><text fill="#eeeeee" stroke="none" font-family="Arial" font-size="24px" font-style="normal" font-weight="normal" text-decoration="none" x="200" y="30">UNREGISTERED</text><text fill="#eeeeee" stroke="none" font-family="Arial" font-size="24px" font-style="normal" font-weight="normal" text-decoration="none" x="200" y="60">UNREGISTERED</text><g transform="translate(-10,-10) scale(1,1)"><path fill="#C0C0C0" stroke="none" d="M 94.76904296875 38.5 C 94.76904296875 32.1487248 99.91776776875 27 106.26904296875 27 C 112.62031816875 27 117.76904296875 32.1487248 117.76904296875 38.5 C 117.76904296875 44.8512752 112.62031816875 50 106.26904296875 50 C 99.91776776875 50 94.76904296875 44.8512752 94.76904296875 38.5 Z" opacity="0.2"/></g><g transform="translate(-10,-10) scale(1,1)"><path fill="#ffffff" stroke="none" d="M 87.76904296875 31.5 C 87.76904296875 25.1487248 92.91776776875 20 99.26904296875 20 C 105.62031816875 20 110.76904296875 25.1487248 110.76904296875 31.5 C 110.76904296875 37.8512752 105.62031816875 43 99.26904296875 43 C 92.91776776875 43 87.76904296875 37.8512752 87.76904296875 31.5 Z"/></g><g transform="translate(-10,-10) scale(1,1)"><path fill="none" stroke="#000000" d="M 87.76904296875 31.5 C 87.76904296875 25.1487248 92.91776776875 20 99.26904296875 20 C 105.62031816875 20 110.76904296875 25.1487248 110.76904296875 31.5 C 110.76904296875 37.8512752 105.62031816875 43 99.26904296875 43 C 92.91776776875 43 87.76904296875 37.8512752 87.76904296875 31.5 Z" stroke-miterlimit="10"/></g><g transform="translate(-10,-10) scale(1,1)"><g><path fill="none" stroke="none"/><text fill="#000000" stroke="none" font-family="Arial" font-size="13px" font-style="normal" font-weight="bold" text-decoration="none" x="24.5" y="61">IRequestCommandBase</text></g></g><g transform="translate(-10,-10) scale(1,1)"><path fill="#C0C0C0" stroke="none" d="M 289.72802734375 38.5 C 289.72802734375 32.1487248 294.87675214375 27 301.22802734375 27 C 307.57930254375 27 312.72802734375 32.1487248 312.72802734375 38.5 C 312.72802734375 44.8512752 307.57930254375 50 301.22802734375 50 C 294.87675214375 50 289.72802734375 44.8512752 289.72802734375 38.5 Z" opacity="0.2"/></g><g transform="translate(-10,-10) scale(1,1)"><path fill="#ffffff" stroke="none" d="M 282.72802734375 31.5 C 282.72802734375 25.1487248 287.87675214375 20 294.22802734375 20 C 300.57930254375 20 305.72802734375 25.1487248 305.72802734375 31.5 C 305.72802734375 37.8512752 300.57930254375 43 294.22802734375 43 C 287.87675214375 43 282.72802734375 37.8512752 282.72802734375 31.5 Z"/></g><g transform="translate(-10,-10) scale(1,1)"><path fill="none" stroke="#000000" d="M 282.72802734375 31.5 C 282.72802734375 25.1487248 287.87675214375 20 294.22802734375 20 C 300.57930254375 20 305.72802734375 25.1487248 305.72802734375 31.5 C 305.72802734375 37.8512752 300.57930254375 43 294.22802734375 43 C 287.87675214375 43 282.72802734375 37.8512752 282.72802734375 31.5 Z" stroke-miterlimit="10"/></g><g transform="translate(-10,-10) scale(1,1)"><g><path fill="none" stroke="none"/><text fill="#000000" stroke="none" font-family="Arial" font-size="13px" font-style="normal" font-weight="bold" text-decoration="none" x="214.0380859375" y="61">IResponseCommandBase</text></g></g></g></svg>