<svg version="1.1" xmlns="http://www.w3.org/2000/svg" xmlns:xlink="http://www.w3.org/1999/xlink" width="142.41357421875" height="68"><defs/><g><text fill="#eeeeee" stroke="none" font-family="Arial" font-size="24px" font-style="normal" font-weight="normal" text-decoration="none" x="0" y="0">UNREGISTERED</text><text fill="#eeeeee" stroke="none" font-family="Arial" font-size="24px" font-style="normal" font-weight="normal" text-decoration="none" x="0" y="30">UNREGISTERED</text><text fill="#eeeeee" stroke="none" font-family="Arial" font-size="24px" font-style="normal" font-weight="normal" text-decoration="none" x="0" y="60">UNREGISTERED</text><g transform="translate(-10,-10) scale(1,1)"><path fill="#C0C0C0" stroke="none" d="M 76.706787109375 38.5 C 76.706787109375 32.1487248 81.855511909375 27 88.206787109375 27 C 94.558062309375 27 99.706787109375 32.1487248 99.706787109375 38.5 C 99.706787109375 44.8512752 94.558062309375 50 88.206787109375 50 C 81.855511909375 50 76.706787109375 44.8512752 76.706787109375 38.5 Z" opacity="0.2"/></g><g transform="translate(-10,-10) scale(1,1)"><path fill="#ffffff" stroke="none" d="M 69.706787109375 31.5 C 69.706787109375 25.1487248 74.855511909375 20 81.206787109375 20 C 87.558062309375 20 92.706787109375 25.1487248 92.706787109375 31.5 C 92.706787109375 37.8512752 87.558062309375 43 81.206787109375 43 C 74.855511909375 43 69.706787109375 37.8512752 69.706787109375 31.5 Z"/></g><g transform="translate(-10,-10) scale(1,1)"><path fill="none" stroke="#000000" d="M 69.706787109375 31.5 C 69.706787109375 25.1487248 74.855511909375 20 81.206787109375 20 C 87.558062309375 20 92.706787109375 25.1487248 92.706787109375 31.5 C 92.706787109375 37.8512752 87.558062309375 43 81.206787109375 43 C 74.855511909375 43 69.706787109375 37.8512752 69.706787109375 31.5 Z" stroke-miterlimit="10"/></g><g transform="translate(-10,-10) scale(1,1)"><g><path fill="none" stroke="none"/><text fill="#000000" stroke="none" font-family="Arial" font-size="13px" font-style="normal" font-weight="bold" text-decoration="none" x="24.5" y="61">IMediatorHandlers</text></g></g></g></svg>