<svg version="1.1" xmlns="http://www.w3.org/2000/svg" xmlns:xlink="http://www.w3.org/1999/xlink" width="95.45361328125" height="68"><defs/><g><text fill="#eeeeee" stroke="none" font-family="Arial" font-size="24px" font-style="normal" font-weight="normal" text-decoration="none" x="0" y="0">UNREGISTERED</text><text fill="#eeeeee" stroke="none" font-family="Arial" font-size="24px" font-style="normal" font-weight="normal" text-decoration="none" x="0" y="30">UNREGISTERED</text><text fill="#eeeeee" stroke="none" font-family="Arial" font-size="24px" font-style="normal" font-weight="normal" text-decoration="none" x="0" y="60">UNREGISTERED</text><g transform="translate(-10,-10) scale(1,1)"><path fill="#C0C0C0" stroke="none" d="M 53.226806640625 38.5 C 53.226806640625 32.1487248 58.375531440625 27 64.726806640625 27 C 71.078081840625 27 76.226806640625 32.1487248 76.226806640625 38.5 C 76.226806640625 44.8512752 71.078081840625 50 64.726806640625 50 C 58.375531440625 50 53.226806640625 44.8512752 53.226806640625 38.5 Z" opacity="0.2"/></g><g transform="translate(-10,-10) scale(1,1)"><path fill="#ffffff" stroke="none" d="M 46.226806640625 31.5 C 46.226806640625 25.1487248 51.375531440625 20 57.726806640625 20 C 64.078081840625 20 69.226806640625 25.1487248 69.226806640625 31.5 C 69.226806640625 37.8512752 64.078081840625 43 57.726806640625 43 C 51.375531440625 43 46.226806640625 37.8512752 46.226806640625 31.5 Z"/></g><g transform="translate(-10,-10) scale(1,1)"><path fill="none" stroke="#000000" d="M 46.226806640625 31.5 C 46.226806640625 25.1487248 51.375531440625 20 57.726806640625 20 C 64.078081840625 20 69.226806640625 25.1487248 69.226806640625 31.5 C 69.226806640625 37.8512752 64.078081840625 43 57.726806640625 43 C 51.375531440625 43 46.226806640625 37.8512752 46.226806640625 31.5 Z" stroke-miterlimit="10"/></g><g transform="translate(-10,-10) scale(1,1)"><g><path fill="none" stroke="none"/><text fill="#000000" stroke="none" font-family="Arial" font-size="13px" font-style="normal" font-weight="bold" text-decoration="none" x="24.5" y="61">IQueryApp</text></g></g></g></svg>