<svg version="1.1" xmlns="http://www.w3.org/2000/svg" xmlns:xlink="http://www.w3.org/1999/xlink" width="147.5234375" height="68"><defs/><g><text fill="#eeeeee" stroke="none" font-family="Arial" font-size="24px" font-style="normal" font-weight="normal" text-decoration="none" x="0" y="0">UNREGISTERED</text><text fill="#eeeeee" stroke="none" font-family="Arial" font-size="24px" font-style="normal" font-weight="normal" text-decoration="none" x="0" y="30">UNREGISTERED</text><text fill="#eeeeee" stroke="none" font-family="Arial" font-size="24px" font-style="normal" font-weight="normal" text-decoration="none" x="0" y="60">UNREGISTERED</text><g transform="translate(-10,-10) scale(1,1)"><path fill="#C0C0C0" stroke="none" d="M 79.26171875 38.5 C 79.26171875 32.1487248 84.41044355 27 90.76171875 27 C 97.11299395 27 102.26171875 32.1487248 102.26171875 38.5 C 102.26171875 44.8512752 97.11299395 50 90.76171875 50 C 84.41044355 50 79.26171875 44.8512752 79.26171875 38.5 Z" opacity="0.2"/></g><g transform="translate(-10,-10) scale(1,1)"><path fill="#ffffff" stroke="none" d="M 72.26171875 31.5 C 72.26171875 25.1487248 77.41044355 20 83.76171875 20 C 90.11299395 20 95.26171875 25.1487248 95.26171875 31.5 C 95.26171875 37.8512752 90.11299395 43 83.76171875 43 C 77.41044355 43 72.26171875 37.8512752 72.26171875 31.5 Z"/></g><g transform="translate(-10,-10) scale(1,1)"><path fill="none" stroke="#000000" d="M 72.26171875 31.5 C 72.26171875 25.1487248 77.41044355 20 83.76171875 20 C 90.11299395 20 95.26171875 25.1487248 95.26171875 31.5 C 95.26171875 37.8512752 90.11299395 43 83.76171875 43 C 77.41044355 43 72.26171875 37.8512752 72.26171875 31.5 Z" stroke-miterlimit="10"/></g><g transform="translate(-10,-10) scale(1,1)"><g><path fill="none" stroke="none"/><text fill="#000000" stroke="none" font-family="Arial" font-size="13px" font-style="normal" font-weight="bold" text-decoration="none" x="24.5" y="61">IQueryServiceBase</text></g></g></g></svg>